# xmcd
#
# Track frame offsets:
#	150
#	12013
#	23197
#	38459
#	50944
#	61859
#	74557
#	96142
#	110087
#	125675
#	140595
#	152519
#	166096
#	177630
#	191633
#
# Disc length: 2818 seconds
#
# Revision: 1
# Processed by: cddbd v1.5.2PL0 Copyright (c) Steve Scherf et al.
# Submitted via: audiograbber 1.83.01
#
DISCID=d10b000f
DTITLE=Various Artist - She's Got the Blues - CD3
DYEAR=2005
DGENRE=Blues
TTITLE0=Peggy Lee - I've Got a Right to Sing the Blues
TTITLE1=Dinah Washington - This Bitter Earth
TTITLE2=Billie Holiday - Don't Explain
TTITLE3=Memphis Minnie - Me and My Chauffeur
TTITLE4=Sarah Vaughan - No Smokes Blues
TTITLE5=Willie Mae Thornton - Hound Dog
TTITLE6=Nina Simone - I Loves You Porgy
TTITLE7=Bessie Smith - Gulf Coast Blues
TTITLE8=Carmen McRae - Body and Soul
TTITLE9=Ma Rainey - See See Rider
TTITLE10=Ruth Brown - R.B. Blues
TTITLE11=Lena Horne - St. Louis Blues
TTITLE12=Sister Rosetta Tharpe - Trouble in Mind
TTITLE13=Ella Fitzgerald - Basin Street Blues
TTITLE14=Judy Garland - Man That Got Away
EXTD=
EXTT0=
EXTT1=
EXTT2=
EXTT3=
EXTT4=
EXTT5=
EXTT6=
EXTT7=
EXTT8=
EXTT9=
EXTT10=
EXTT11=
EXTT12=
EXTT13=
EXTT14=
PLAYORDER=
